Coordinates
version=1
nRows=10
nColumns=40
inDegrees=yes

Units are S.I. units (second, meters, Newtons, ...)
Angles are in degrees.

endheader
time	pelvis_tilt	pelvis_list	pelvis_rotation	pelvis_tx	pelvis_ty	pelvis_tz	hip_flexion_r	hip_adduction_r	hip_rotation_r	knee_angle_r	knee_angle_r_beta	ankle_angle_r	subtalar_angle_r	mtp_angle_r	hip_flexion_l	hip_adduction_l	hip_rotation_l	knee_angle_l	knee_angle_l_beta	ankle_angle_l	subtalar_angle_l	mtp_angle_l	lumbar_extension	lumbar_bending	lumbar_rotation	arm_flex_r	arm_add_r	arm_rot_r	elbow_flex_r	pro_sup_r	wrist_flex_r	wrist_dev_r	arm_flex_l	arm_add_l	arm_rot_l	elbow_flex_l	pro_sup_l	wrist_flex_l	wrist_dev_l
     40.09928571	     -3.68733712	     -5.84817958	     -3.10523079	      1.10862988	      0.91934255	      0.38259707	     27.70796551	     -6.47940448	     -1.24945272	     61.01234163	     61.01234163	      3.39979537	    -13.23438542	     -0.85196846	     17.26705689	     -3.74512391	     -5.84071110	     31.42138177	     31.42138177	     20.27012800	    -16.68798995	      6.94948479	    -10.45902690	      5.47245094	      1.80620792	    -12.08815356	    -13.98730065	     -6.64643267	     26.16813393	     46.41330085	      0.00000000	      0.00000000	     29.90784090	    -15.76258411	      6.42533256	     52.15215209	     46.65150107	      0.00000000	      0.00000000
     40.12107143	     -3.75111273	     -5.95509881	     -4.15662189	      1.10727488	      0.92197770	      0.38324026	     28.40444675	     -5.99684386	     -1.03696132	     58.72210359	     58.72210359	      3.83315284	    -12.28596153	     -1.27141349	     16.12947808	     -4.01755380	     -6.93355642	     29.87963996	     29.87963996	     20.04528801	    -16.34059169	      7.05391231	    -10.39012302	      5.62324962	      1.68668150	    -13.75327864	    -14.04236309	     -6.73593056	     26.16163761	     46.40264906	      0.00000000	      0.00000000	     30.97137149	    -16.40154525	      5.42536013	     53.20893225	     46.76121331	      0.00000000	      0.00000000
     40.14285714	     -3.97236572	     -6.12229568	     -5.21881683	      1.10579011	      0.92438922	      0.38422601	     28.88092936	     -5.46327743	     -1.02624181	     55.47954150	     55.47954150	      3.56059133	    -11.55111829	     -3.87108210	     15.14359519	     -4.38358494	     -8.11492071	     28.27123262	     28.27123262	     19.19496843	    -16.11987123	      5.62570974	    -10.24591050	      5.85824913	      1.37934214	    -15.79180089	    -14.17825388	     -7.23496200	     28.61860396	     46.30167104	      0.00000000	      0.00000000	     30.97292689	    -16.62619583	      1.47897453	     56.38001119	     47.12961029	      0.00000000	      0.00000000
     40.16464286	     -4.14664766	     -6.25294008	     -6.25548882	      1.10424486	      0.92689744	      0.38547116	     29.07073662	     -4.98507449	     -1.11081870	     51.71147733	     51.71147733	      4.03199760	    -10.00080695	     -4.33370665	     14.07607002	     -4.67040471	     -9.27258359	     26.64160319	     26.64160319	     18.92467478	    -15.60887822	      5.69812139	    -10.10286993	      6.02929335	      1.59240761	    -16.91702977	    -14.08062039	     -7.23292067	     28.57683903	     46.29049825	      0.00000000	      0.00000000	     32.01438315	    -17.04601591	      0.63547361	     57.62665228	     47.22007774	      0.00000000	      0.00000000
     40.18642857	     -4.38519650	     -6.39846503	     -7.23274234	      1.10268719	      0.92912115	      0.38688618	     28.99493032	     -4.48497198	     -1.33519024	     47.31895603	     47.31895603	      4.34987504	     -8.23788795	     -4.63972351	     13.13037430	     -4.95739911	    -10.37849787	     25.09561918	     25.09561918	     18.62306572	    -15.08683078	      5.63767088	     -9.89883640	      6.23762422	      1.74015460	    -17.84624340	    -13.95228756	     -7.31324880	     28.77483343	     46.27688937	      0.00000000	      0.00000000	     32.80946637	    -17.37919852	     -0.35928425	     59.04944474	     47.32235222	      0.00000000	      0.00000000
     40.20821429	     -4.64529650	     -6.46916432	     -8.18263540	      1.10116088	      0.93079478	      0.38852223	     28.63535290	     -4.05962175	     -1.67205507	     42.38160451	     42.38160451	      3.94514713	     -6.41676898	     -6.70793046	     12.18660931	     -5.17895586	    -11.61264708	     23.46064513	     23.46064513	     17.62090038	    -14.68941631	      3.74882622	     -9.79171362	      6.39492669	      1.29863356	    -18.61792328	    -13.85095455	     -7.76666610	     30.51868511	     46.21600780	      0.00000000	      0.00000000	     32.33228316	    -17.59095297	     -4.41981913	     63.07678862	     47.67650336	      0.00000000	      0.00000000
     40.23000000	     -4.99633563	     -6.55679981	     -8.97405843	      1.09961865	      0.93197087	      0.39031896	     28.15662544	     -3.51997828	     -2.00068437	     37.30177742	     37.30177742	      4.02639078	     -4.36640544	     -6.15191514	     11.56323365	     -5.38150525	    -12.44931817	     22.24525953	     22.24525953	     17.43348597	    -14.31474368	      3.82674604	     -9.42121137	      6.58107145	      1.48933425	    -18.94952287	    -13.50814745	     -7.69526122	     30.45781801	     46.20895059	      0.00000000	      0.00000000	     33.25351087	    -17.90592120	     -4.82804017	     63.94474282	     47.72616013	      0.00000000	      0.00000000
     40.25178571	     -5.08294111	     -6.51687349	     -9.68578207	      1.09847020	      0.93291284	      0.39214847	     27.19898594	     -3.18374886	     -2.47718141	     32.14542789	     32.14542789	      4.02826459	     -1.72778226	     -5.36700727	     10.69655401	     -5.41887368	    -13.39090362	     21.12462674	     21.12462674	     17.29819361	    -13.76280962	      3.63727814	     -9.33263067	      6.61136002	      1.75296257	    -19.22128596	    -13.14740521	     -7.66209674	     30.46916241	     46.20182678	      0.00000000	      0.00000000	     34.06958926	    -18.04752835	     -5.47321041	     65.22693485	     47.79863575	      0.00000000	      0.00000000
     40.27357143	     -5.00017000	     -6.31139879	    -10.31463900	      1.09773067	      0.93332714	      0.39402799	     26.15822466	     -3.15647857	     -3.32525423	     27.58062692	     27.58062692	      4.60861323	      1.99243337	     -2.78493421	      9.64793069	     -5.25901986	    -14.52118345	     19.93142186	     19.93142186	     16.42176567	    -13.29274443	      1.15694987	     -9.47017945	      6.41033873	      1.11688681	    -18.85972583	    -12.93127354	     -7.80403785	     30.76188901	     46.19232671	      0.00000000	      0.00000000	     33.41506273	    -18.25599603	     -9.03493627	     69.35074451	     48.09529153	      0.00000000	      0.00000000
     40.29535714	     -5.07453135	     -6.10963729	    -10.74116457	      1.09716434	      0.93312800	      0.39602187	     25.10949249	     -2.91626411	     -3.80091447	     23.10028255	     23.10028255	      4.31096818	      4.36412041	     -1.46176239	      9.03548936	     -5.09730094	    -15.10084389	     19.24639090	     19.24639090	     16.45015640	    -12.95740511	      0.92547085	     -9.21166997	      6.30311531	      1.32126429	    -18.92452051	    -12.51180484	     -7.68509531	     30.66240734	     46.18587607	      0.00000000	      0.00000000	     34.12477962	    -18.25535329	     -9.27231678	     70.20913914	     48.12881295	      0.00000000	      0.00000000
